HIERARCHY
ROOT Hips
{
  OFFSET 0 0 0
  CHANNELS 6 Xposition Yposition Zposition Zrotation Yrotation Xrotation
  JOINT LeftThigh
  {
    OFFSET 8.409438 0 -5.917753
    CHANNELS 3 Zrotation Yrotation Xrotation
    JOINT LeftLeg
    {
      OFFSET 0 0 -42.358652
      CHANNELS 3 Zrotation Yrotation Xrotation
      JOINT LeftFoot
      {
        OFFSET 0 0 -39.357303
        CHANNELS 3 Zrotation Yrotation Xrotation
      }
    }
  }
  JOINT RightThigh
  {
    OFFSET -8.409438 0 -5.917753
    CHANNELS 3 Zrotation Yrotation Xrotation
    JOINT RightLeg
    {
      OFFSET 0 0 -42.358652
      CHANNELS 3 Zrotation Yrotation Xrotation
      JOINT RightFoot
      {
        OFFSET 0 0 -39.357303
        CHANNELS 3 Zrotation Yrotation Xrotation
      }
    }
  }
  JOINT SpineLow
  {
    OFFSET 0 0 4.719101
    CHANNELS 3 Zrotation Yrotation Xrotation
    JOINT SpineMid
    {
      OFFSET 0 0 12.899191
      CHANNELS 3 Zrotation Yrotation Xrotation
      JOINT Chest
      {
        OFFSET 0 0 12.899191
        CHANNELS 3 Zrotation Yrotation Xrotation
        JOINT LeftShoulder
        {
          OFFSET 7.550562 1.41573 9.438202
          CHANNELS 3 Zrotation Yrotation Xrotation
          JOINT LeftArm
          {
            OFFSET 9.155056 0 4.247191
            CHANNELS 3 Zrotation Yrotation Xrotation
            JOINT LeftForearm
            {
              OFFSET 0 0 25.771955
              CHANNELS 3 Zrotation Yrotation Xrotation
              JOINT LeftHand
              {
                OFFSET 0 0 25.197169
                CHANNELS 3 Zrotation Yrotation Xrotation
              }
            }
          }
        }
        JOINT RightShoulder
        {
          OFFSET -7.550562 1.41573 9.438202
          CHANNELS 3 Zrotation Yrotation Xrotation
          JOINT RightArm
          {
            OFFSET -9.155056 0 4.247191
            CHANNELS 3 Zrotation Yrotation Xrotation
            JOINT RightForearm
            {
              OFFSET 0 0 -25.771955
              CHANNELS 3 Zrotation Yrotation Xrotation
              JOINT RightHand
              {
                OFFSET 0 0 -25.197169
                CHANNELS 3 Zrotation Yrotation Xrotation
              }
            }
          }
        }
        JOINT Neck
        {
          OFFSET 0 0 15.101124
          CHANNELS 3 Zrotation Yrotation Xrotation
          JOINT Head
          {
            OFFSET 0 0 11.325843
            CHANNELS 3 Zrotation Yrotation Xrotation
            End Site
            {
              OFFSET 0 0 14.157303
            }
          }
        }
      }
    }
  }
}
MOTION
Frames: 13
Frame Time: 0.0
0.0  101.685394  0.0  6.506107  24.215076  -96.355263  11.812544  -22.228443  30.148814  -8.135511  10.537412  21.241372  -4.220232  5.97316  -2.791771  -23.816109  9.689273  -46.422603  11.322854  10.628156  62.922752  27.067453  5.656547  2.18694  -5.075749  1.615392  1.391484  -13.796901  4.683094  3.451061  -13.796902  4.683094  3.451061  13.179746  28.446512  19.410877  120.69502  46.107739  178.564762  -52.105414  -22.018449  99.470208  81.809205  1.054499  -16.547387  33.797201  -6.162838  27.982706  71.021016  74.749237  4.542828  -40.15465  1.946889  -89.796465  90.493534  6.571482  59.645471  3.737802  -2.077308  -4.221394  2.788849  -1.583956  -3.153129  
0.0  101.685394  0.0  6.411233  24.153261  -96.393395  11.619375  -21.878029  30.254066  -7.277939  10.15481  21.162222  -4.601002  5.898216  -2.825081  -24.296172  9.65399  -46.458929  11.268908  10.063574  62.677149  27.088723  5.763828  2.332111  -4.94493  1.616976  1.383818  -13.439355  4.679519  3.439509  -13.439355  4.679519  3.439509  12.472902  28.277917  19.3912  120.532617  45.809756  178.240422  -52.075562  -21.549748  99.130692  81.701861  1.083189  -16.94353  33.021058  -6.378097  27.794205  72.326882  74.314604  5.573813  -40.169451  1.912871  -89.483653  90.192286  6.631154  59.932746  3.340438  -2.142465  -3.988994  2.491173  -1.628789  -2.979788  
0.0  101.685394  0.0  6.293106  24.307951  -96.440866  11.464784  -21.759992  30.286913  -6.762499  9.855318  21.066516  -4.906738  5.874365  -2.785091  -24.907755  9.575594  -46.449861  11.255156  10.007961  62.332406  27.267472  5.671591  2.414814  -4.96303  1.614844  1.342162  -13.491987  4.666156  3.325102  -13.491987  4.666156  3.325101  12.545785  28.235721  19.642587  120.301482  45.522152  177.882043  -52.201911  -21.166557  98.99535  81.739561  1.027759  -17.360514  33.018784  -6.525939  27.932154  73.106603  73.934186  6.089257  -40.104085  1.885037  -89.29124  90.014473  6.584439  60.275259  3.3222  -2.168639  -3.721321  2.478251  -1.646835  -2.778962  
0.0  101.685394  0.0  6.087249  24.618754  -96.513585  11.426857  -21.928896  30.19887  -6.683097  9.661316  20.937706  -5.054907  5.877546  -2.678941  -25.065278  9.181836  -46.01724  11.101501  10.11154  61.912434  27.190887  5.75471  2.455765  -5.06345  1.598822  1.291932  -13.770944  4.616863  3.184159  -13.770944  4.616863  3.184159  12.810482  28.184465  19.909247  120.123658  45.18012  177.647129  -52.505926  -20.992954  98.992866  81.73411  0.974506  -17.626328  33.1442  -6.639747  28.119732  74.336304  73.542367  6.981653  -40.142679  2.313888  -88.811166  89.374125  6.968986  60.331676  3.487305  -2.170516  -3.484517  2.602886  -1.647894  -2.600786  
0.0  101.685394  0.0  5.925234  24.877726  -96.607689  11.592605  -22.27053  30.113061  -6.953769  9.591462  20.784195  -5.054108  5.952714  -2.489194  -25.522084  9.041942  -45.924128  11.105007  10.215591  61.602473  27.365403  5.64912  2.490157  -5.120744  1.583429  1.268513  -13.929865  4.572648  3.119392  -13.929865  4.572647  3.119392  12.96276  28.217965  20.12186  119.789225  44.90537  177.32549  -52.779108  -20.983209  99.157783  81.562466  0.970404  -17.692506  33.200578  -6.672773  28.447063  74.792338  73.37444  7.225394  -40.072377  2.253935  -88.814924  89.358801  6.916304  60.39234  3.475331  -2.181469  -3.388221  2.594179  -1.65549  -2.528546  
0.0  101.685394  0.0  5.844198  25.401593  -96.62011  11.578922  -22.645156  29.928207  -7.452284  9.610528  20.608852  -4.835596  6.109043  -2.202281  -25.93262  8.949881  -45.761976  10.898108  10.327948  61.292297  27.506438  5.689973  2.518145  -5.211115  1.585754  1.255289  -14.178079  4.580061  3.076385  -14.17808  4.580062  3.076386  12.823339  28.137292  20.16443  119.547516  44.703515  177.079522  -53.126282  -21.067821  99.365338  81.330585  0.976915  -17.631535  32.915213  -6.695086  28.578151  75.996554  73.130169  8.055519  -40.103613  2.292309  -88.88379  89.3182  6.864201  60.284939  3.424729  -2.2072  -3.428516  2.555937  -1.674735  -2.558791  
0.0  101.685394  0.0  5.788707  25.375384  -96.750623  11.979948  -23.07875  29.937705  -7.912936  9.731103  20.467101  -4.618033  6.226559  -1.940052  -25.834349  8.968964  -45.645588  10.812824  10.482192  61.091173  27.642299  5.59125  2.511061  -5.214193  1.593995  1.278083  -14.184651  4.607453  3.1365  -14.184651  4.607453  3.1365  12.813182  28.096423  20.148567  119.282862  44.628639  176.799961  -53.288805  -21.115951  99.642992  81.2087  0.962961  -17.533922  32.891851  -6.683316  28.7999  76.174222  73.086665  8.103965  -40.160484  2.392515  -89.074514  89.37623  6.645345  60.154363  3.325718  -2.278242  -3.591484  2.480667  -1.728354  -2.680949  
0.0  101.685394  0.0  5.808753  25.268465  -96.826701  12.347179  -23.35895  29.870697  -8.190694  9.858586  20.49174  -4.340164  6.357689  -1.669443  -25.603138  9.101028  -45.573997  10.712118  10.477051  60.940443  27.59297  5.554728  2.46618  -5.198664  1.608516  1.32126  -14.138629  4.655422  3.252164  -14.138629  4.655422  3.252164  12.344517  27.997503  19.88304  118.68081  44.565051  176.552117  -53.855162  -21.409329  99.783774  81.22023  0.953896  -17.505309  32.591949  -6.57415  28.769167  77.105408  72.922331  8.781903  -40.570509  3.068821  -88.975034  88.455105  6.828858  58.824643  3.137933  -2.316545  -3.93301  2.338329  -1.75774  -2.937548  
0.0  101.685394  0.0  5.866557  24.963533  -96.851108  12.783999  -23.497166  29.85104  -8.269582  9.899634  20.465416  -4.163937  6.485553  -1.412216  -25.097417  9.262885  -45.523959  10.542187  10.558704  60.7674  27.607526  5.484142  2.4243  -5.160995  1.623811  1.362001  -14.032099  4.703883  3.36271  -14.032099  4.703883  3.36271  12.273141  27.992946  19.710514  118.326937  44.630678  176.276165  -54.007019  -21.54101  100.13101  81.268511  0.932632  -17.464611  32.551163  -6.457672  28.862095  77.23076  72.883005  8.819964  -40.739673  3.368615  -89.226793  88.531443  6.480588  58.725492  3.010174  -2.404089  -4.256119  2.240677  -1.824183  -3.179866  
0.0  101.685394  0.0  5.888927  24.536487  -96.922701  13.254248  -23.548036  29.837997  -8.109773  9.868232  20.590771  -4.024596  6.592374  -1.192026  -24.442451  9.511615  -45.399862  10.439267  10.359993  60.676665  27.21659  5.444268  2.273099  -5.092037  1.641636  1.416391  -13.838778  4.760412  3.512331  -13.838778  4.760412  3.512331  11.944652  27.926388  19.472501  117.871255  44.735942  176.0272  -54.130796  -21.767407  100.503537  81.486086  1.080494  -17.652701  32.406471  -6.367011  28.876332  77.526183  72.79976  9.105963  -41.089433  3.813418  -89.471182  88.380969  6.219776  58.467777  2.797403  -2.506788  -4.612901  2.078926  -1.901377  -3.44773  
0.0  101.685394  0.0  5.899348  24.107754  -96.920746  13.743143  -23.581129  29.801978  -8.064219  9.804098  20.511958  -3.84895  6.687559  -0.938566  -23.69027  9.673711  -45.371193  10.139504  10.505525  60.560779  27.242762  5.370578  2.207301  -5.046318  1.644942  1.443988  -13.711479  4.772832  3.59028  -13.711479  4.772832  3.59028  11.923119  28.029505  19.391097  117.461124  44.961905  175.696794  -54.324845  -22.028258  100.891492  81.648588  1.157337  -17.718752  32.378646  -6.237391  29.031761  77.536669  72.732119  9.053373  -41.187598  4.142785  -89.815015  88.330508  5.842142  58.354908  2.694291  -2.570596  -4.871662  2.000027  -1.949611  -3.641879  
0.0  101.685394  0.0  5.567997  23.307274  -97.332771  14.442679  -23.950463  29.877559  -8.080789  9.726121  20.450072  -3.59628  6.756815  -0.687078  -22.401236  9.792857  -44.795288  9.695361  10.583598  60.412208  27.006078  5.287101  2.04179  -4.93823  1.62848  1.521905  -13.410477  4.738287  3.814001  -13.410477  4.738287  3.814001  11.650718  28.023999  19.274385  115.99129  45.155861  175.070185  -54.409212  -22.414905  101.247889  82.350132  1.794496  -18.806998  32.294623  -6.21709  29.137859  77.458432  72.742713  9.202263  -41.784226  4.868099  -89.934229  87.484151  5.831351  57.588337  2.562749  -2.663349  -5.089014  1.89968  -2.019055  -3.804978  
0.0  101.685394  0.0  5.472293  23.011193  -97.326317  14.778744  -24.040477  29.801384  -8.076916  9.6892  20.29564  -3.383957  6.796344  -0.423214  -21.822132  9.845795  -44.76088  9.395238  10.794515  60.302676  27.097362  5.197297  1.968927  -4.914826  1.623825  1.537776  -13.345433  4.727543  3.859921  -13.345434  4.727543  3.859921  11.559674  28.150033  19.258281  115.667257  45.515956  174.674175  -54.595535  -22.68307  101.679067  82.701022  1.956374  -19.194873  32.229533  -6.165749  29.306944  77.643826  72.660233  9.364844  -41.822947  5.102806  -90.337782  87.263734  5.342981  57.40746  2.470996  -2.730235  -5.235777  1.829649  -2.06906  -3.91512  
